# xmcd
#
# Track frame offsets:
#	150
#	40063
#	63276
#	81954
#	99546
#	120435
#	144800
#	174457
#	192498
#	213207
#	236510
#	249817
#	276711
#	299105
#
# Disc length: 4237 seconds
#
# Revision: 0
# Processed by: cddbd v1.5.2PL0 Copyright (c) Steve Scherf et al.
# Submitted via: EasyCDDAExtractor 2010.6.0.0
#
DISCID=ca108b0e
DTITLE=Sivert Høyem - Moon Landing PK Eksklusiv
DYEAR=2009
DGENRE=
TTITLE0=Belorado
TTITLE1=The Light That Falls Among the Trees
TTITLE2=Moon Landing
TTITLE3=What You Doin' With Him?
TTITLE4=Going for Gold
TTITLE5=Lost at Sea
TTITLE6=Shadows - High Meseta
TTITLE7=Empty House
TTITLE8=High Society
TTITLE9=Arcadian Wives
TTITLE10=Return to Nothing Special
TTITLE11=Sister Sonic Blue
TTITLE12=Johnny
TTITLE13=The House of The Rising Sun
EXTD=
EXTT0=
EXTT1=
EXTT2=
EXTT3=
EXTT4=
EXTT5=
EXTT6=
EXTT7=
EXTT8=
EXTT9=
EXTT10=
EXTT11=
EXTT12=
EXTT13=
PLAYORDER=
